
<svg width="18" height="21" viewBox="0 0 18 21" fill="none" xmlns="http://www.w3.org/2000/svg">
<path d="M14.8029 10.6357C14.7333 10.5645 14.6503 10.5079 14.5586 10.4692C14.4669 10.4305 14.3684 10.4104 14.2689 10.4102C14.1693 10.4099 14.0708 10.4294 13.9789 10.4676C13.887 10.5059 13.8036 10.562 13.7336 10.6328C13.6636 10.7035 13.6084 10.7875 13.5712 10.8798C13.534 10.9722 13.5155 11.071 13.5169 11.1705C13.5183 11.27 13.5394 11.3683 13.5792 11.4595C13.6189 11.5508 13.6764 11.6332 13.7483 11.702C14.3846 12.3282 14.8894 13.0751 15.2332 13.899C15.5769 14.7228 15.7526 15.6071 15.75 16.4998C15.75 17.4171 13.1206 18.7498 8.99998 18.7498C4.8794 18.7498 2.24997 17.4164 2.24997 16.4983C2.24745 15.6117 2.4208 14.7334 2.76 13.9143C3.0992 13.0952 3.59751 12.3515 4.22607 11.7262C4.29717 11.6569 4.35379 11.5742 4.39266 11.4828C4.43153 11.3915 4.45186 11.2933 4.45249 11.194C4.45312 11.0947 4.43403 10.9963 4.39632 10.9044C4.35862 10.8126 4.30305 10.7291 4.23284 10.6589C4.16263 10.5887 4.07918 10.5331 3.98732 10.4954C3.89547 10.4577 3.79704 10.4386 3.69775 10.4393C3.59847 10.4399 3.50029 10.4602 3.40892 10.4991C3.31755 10.538 3.23481 10.5946 3.1655 10.6657C2.39707 11.4301 1.7879 12.3393 1.37327 13.3407C0.958643 14.3422 0.746788 15.4159 0.749974 16.4998C0.749974 18.9355 5.00022 20.2498 8.99998 20.2498C12.9997 20.2498 17.25 18.9355 17.25 16.4998C17.2533 15.4086 17.0386 14.3278 16.6183 13.3207C16.1981 12.3137 15.5809 11.4008 14.8029 10.6357Z" fill="white"/>
<path d="M9 11.25C10.0384 11.25 11.0534 10.9421 11.9167 10.3652C12.7801 9.78833 13.453 8.96839 13.8504 8.00908C14.2477 7.04977 14.3517 5.99417 14.1491 4.97577C13.9466 3.95737 13.4465 3.02191 12.7123 2.28769C11.9781 1.55346 11.0426 1.05345 10.0242 0.850879C9.00583 0.648307 7.95022 0.752275 6.99091 1.14963C6.0316 1.54699 5.21166 2.2199 4.63478 3.08326C4.05791 3.94661 3.75 4.96164 3.75 6C3.75161 7.39189 4.30525 8.72631 5.28947 9.71053C6.27368 10.6947 7.60811 11.2484 9 11.25ZM9 2.25C9.74168 2.25 10.4667 2.46993 11.0834 2.88199C11.7001 3.29404 12.1807 3.87971 12.4645 4.56493C12.7484 5.25016 12.8226 6.00415 12.6779 6.73158C12.5333 7.45901 12.1761 8.1272 11.6517 8.65164C11.1272 9.17609 10.459 9.53324 9.73159 9.67794C9.00416 9.82263 8.25016 9.74837 7.56494 9.46454C6.87971 9.18071 6.29404 8.70006 5.88199 8.08338C5.46993 7.4667 5.25 6.74167 5.25 6C5.25117 5.00579 5.64664 4.05265 6.34964 3.34964C7.05265 2.64664 8.0058 2.25117 9 2.25Z" fill="white"/>
</svg>
